<?xml version="1.0" encoding="utf-8"?>
<!-- Generator: Adobe Illustrator 16.0.0, SVG Export Plug-In . SVG Version: 6.00 Build 0)  -->
<!DOCTYPE svg PUBLIC "-//W3C//DTD SVG 1.1//EN" "http://www.w3.org/Graphics/SVG/1.1/DTD/svg11.dtd">
<svg version="1.1" id="레이어_1" xmlns="http://www.w3.org/2000/svg" xmlns:xlink="http://www.w3.org/1999/xlink" x="0px"
	 y="0px" width="30px" height="30px" viewBox="0 0 30 30" enable-background="new 0 0 30 30" xml:space="preserve">
<g>
	<defs>
		<circle id="SVGID_1_" cx="15.067" cy="14.833" r="14.833"/>
	</defs>
	<clipPath id="SVGID_2_">
		<use xlink:href="#SVGID_1_"  overflow="visible"/>
	</clipPath>
	<circle clip-path="url(#SVGID_2_)" fill="#FFFFFF" cx="15.067" cy="14.833" r="14.833"/>
	<g clip-path="url(#SVGID_2_)">
		<g>
			<path fill="#CC3333" d="M34.197,31.096c-8.361,0-15.163-6.803-15.163-15.165c0-8.361,6.802-15.162,15.163-15.162
				S49.36,7.57,49.36,15.931C49.36,24.293,42.559,31.096,34.197,31.096z M34.197,1.428c-7.997,0-14.505,6.506-14.505,14.503
				c0,7.997,6.508,14.504,14.505,14.504S48.7,23.928,48.7,15.931C48.7,7.934,42.194,1.428,34.197,1.428z"/>
		</g>
		<g>
			
				<rect x="21.616" y="5.438" transform="matrix(0.6343 0.7731 -0.7731 0.6343 13.0672 -16.0882)" fill="#CC3333" width="3.846" height="0.66"/>
		</g>
		<g>
			
				<rect x="19.538" y="8.202" transform="matrix(0.7481 0.6636 -0.6636 0.7481 11.0665 -12.0918)" fill="#CC3333" width="3.846" height="0.659"/>
		</g>
		<g>
			
				<rect x="18.1" y="11.367" transform="matrix(0.944 0.3301 -0.3301 0.944 4.9827 -5.9532)" fill="#CC3333" width="3.846" height="0.659"/>
		</g>
		<g>
			
				<rect x="17.44" y="14.503" transform="matrix(0.9904 0.138 -0.138 0.9904 2.2321 -2.53)" fill="#CC3333" width="3.846" height="0.66"/>
		</g>
		<g>
			
				<rect x="19.034" y="16.597" transform="matrix(0.0845 0.9964 -0.9964 0.0845 36.1805 -2.3402)" fill="#CC3333" width="0.659" height="3.844"/>
		</g>
		<g>
			
				<rect x="20.075" y="20.341" transform="matrix(0.1927 0.9813 -0.9813 0.1927 38.3189 -2.0483)" fill="#CC3333" width="0.659" height="3.845"/>
		</g>
		<g>
			
				<rect x="22.571" y="23.329" transform="matrix(0.3064 0.9519 -0.9519 0.3064 39.9206 -4.2832)" fill="#CC3333" width="0.657" height="3.845"/>
		</g>
	</g>
	<g clip-path="url(#SVGID_2_)">
		<g>
			<path fill="#CC3333" d="M-4.978,31.096c-8.361,0-15.163-6.803-15.163-15.165c0-8.361,6.802-15.162,15.163-15.162
				S10.185,7.57,10.185,15.931C10.185,24.293,3.383,31.096-4.978,31.096z M-4.978,1.428c-7.998,0-14.503,6.506-14.503,14.503
				c0,7.997,6.506,14.504,14.503,14.504c7.997,0,14.504-6.508,14.504-14.504C9.526,7.934,3.019,1.428-4.978,1.428z"/>
		</g>
		<g>
			
				<rect x="5.351" y="3.845" transform="matrix(0.7737 0.6336 -0.6336 0.7737 4.9403 -2.2934)" fill="#CC3333" width="0.659" height="3.846"/>
		</g>
		<g>
			
				<rect x="7.428" y="6.608" transform="matrix(0.664 0.7477 -0.7477 0.664 8.9857 -2.9341)" fill="#CC3333" width="0.659" height="3.846"/>
		</g>
		<g>
			
				<rect x="8.866" y="9.774" transform="matrix(0.3297 0.9441 -0.9441 0.3297 17.2065 -0.8417)" fill="#CC3333" width="0.66" height="3.845"/>
		</g>
		<g>
			
				<rect x="9.526" y="12.91" transform="matrix(0.1378 0.9905 -0.9905 0.1378 23.189 3.0282)" fill="#CC3333" width="0.659" height="3.846"/>
		</g>
		<g>
			
				<rect x="7.933" y="18.19" transform="matrix(0.9963 0.0864 -0.0864 0.9963 1.6361 -0.7819)" fill="#CC3333" width="3.845" height="0.659"/>
		</g>
		<g>
			
				<rect x="6.892" y="21.934" transform="matrix(0.9813 0.1925 -0.1925 0.9813 4.4501 -1.2804)" fill="#CC3333" width="3.846" height="0.659"/>
		</g>
		<g>
			
				<rect x="4.397" y="24.922" transform="matrix(0.9516 0.3073 -0.3073 0.9516 8.0667 -0.7199)" fill="#CC3333" width="3.845" height="0.659"/>
		</g>
	</g>
</g>
</svg>
