<?xml version="1.0" encoding="utf-8"?>
<!-- Generator: Adobe Illustrator 21.0.0, SVG Export Plug-In . SVG Version: 6.00 Build 0)  -->
<svg version="1.1" id="레이어_1" xmlns="http://www.w3.org/2000/svg" xmlns:xlink="http://www.w3.org/1999/xlink" x="0px"
	 y="0px" viewBox="0 0 60 60" style="enable-background:new 0 0 60 60;" xml:space="preserve">
<style type="text/css">
	.st0{fill:#FFFFFF;}
	.st1{fill:#CC3333;}
</style>
<g>
	<circle class="st0" cx="30" cy="30" r="30"/>
	<g>
		<path class="st1" d="M20.1,32.2c0-0.6-0.1-1.1-0.1-1.6l3.4-0.5l-0.2-1.3L20,29.3c-0.2-1.8-0.5-3.5-1-5.2l3-1.1l-0.4-1.3l-3,1
			c-0.6-1.9-1.4-3.8-2.4-5.5l2.4-2.1l-0.9-1l-2.2,1.9c-1-1.6-2.2-3.2-3.5-4.6l2-2.4l-1-0.8l-1.9,2.3C10.4,9.9,9.7,9.2,9,8.6
			c-0.3,0.3-0.6,0.6-0.9,1c0.8,0.6,1.5,1.3,2.2,2L8,14.3l1,0.8l2.1-2.5c1.2,1.4,2.4,2.9,3.4,4.4l-2.6,2.3l0.9,1l2.4-2.1
			c0.9,1.6,1.6,3.3,2.2,5l-3.1,1.1l0.4,1.3l3-1.1c0.4,1.6,0.8,3.2,0.9,4.9l-3.1,0.4l0.2,1.3l3-0.4c0,0.5,0.1,1,0.1,1.4
			c0,1.5-0.2,3-0.4,4.5l-2.8-0.2l-0.1,1.3l2.7,0.2c-0.4,2.1-1.1,4.2-2,6.1l-2.6-0.5l-0.3,1.3l2.2,0.4c-0.9,1.8-2,3.5-3.2,5l-3.6-1.2
			l-0.4,1.3l3.1,1c-0.4,0.4-0.7,0.8-1.1,1.2c0.3,0.3,0.7,0.6,1,0.8c0.5-0.5,1-1.1,1.4-1.6l2.9,0.9l0.4-1.3l-2.5-0.8
			c1.2-1.6,2.3-3.4,3.2-5.2l4.1,0.8l0.3-1.3l-3.7-0.7c0.9-2,1.5-4.1,2-6.3l3.7,0.3l0.1-1.3l-3.6-0.3C20,35.3,20.1,33.8,20.1,32.2z"
			/>
		<path class="st1" d="M49.1,15.1l1-0.8l-2.2-2.6c1-1,2.1-2,3.2-2.9c-0.3-0.3-0.7-0.6-1-0.9c-1.1,0.8-2.1,1.8-3.1,2.7l-1.9-2.3
			l-1,0.8l2,2.5c-1.3,1.4-2.5,2.9-3.5,4.6l-2.2-2l-0.9,1l2.4,2.1c-1,1.7-1.8,3.6-2.4,5.5l-3-1L36.1,23l3,1.1c-0.5,1.7-0.8,3.4-1,5.2
			l-3.3-0.5l-0.2,1.3l3.4,0.5c0,0.5-0.1,1.1-0.1,1.6c0,1.6,0.2,3.1,0.4,4.6l-3.6,0.3l0.1,1.3l3.7-0.3c0.4,2.2,1.1,4.3,1.9,6.3
			l-3.7,0.7l0.3,1.3l4.1-0.8c0.9,1.8,2,3.6,3.2,5.2l-2.5,0.8l0.4,1.3l2.9-0.9c0.7,0.8,1.4,1.6,2.2,2.4c0.4-0.3,0.7-0.5,1.1-0.8
			c-0.7-0.6-1.3-1.3-1.9-2l3.1-1l-0.4-1.3l-3.6,1.2c-1.2-1.6-2.3-3.2-3.2-5l2.2-0.4l-0.3-1.3l-2.6,0.5c-0.9-1.9-1.5-4-2-6.1l2.7-0.2
			l-0.1-1.3l-2.8,0.2c-0.2-1.5-0.4-2.9-0.4-4.5c0-0.5,0.1-1,0.1-1.4l3,0.4l0.2-1.3l-3.1-0.4c0.2-1.7,0.5-3.3,0.9-4.9l3,1.1l0.4-1.3
			l-3.1-1.1c0.6-1.8,1.3-3.4,2.2-5l2.4,2.1l0.9-1L43.7,17c1-1.6,2.1-3.1,3.3-4.5L49.1,15.1z"/>
	</g>
</g>
</svg>
