<svg id="레이어_1" data-name="레이어 1" xmlns="http://www.w3.org/2000/svg" xmlns:xlink="http://www.w3.org/1999/xlink" viewBox="0 0 200 100"><defs><style>.cls-1{fill:none;}.cls-2{fill:#da1c5c;}.cls-3,.cls-4,.cls-5{fill:#101010;}.cls-4,.cls-5{stroke:#101010;}.cls-4,.cls-5,.cls-6{stroke-miterlimit:10;}.cls-4{stroke-width:2px;}.cls-6,.cls-8{fill:#fff;}.cls-6{stroke:#fff;}.cls-7{clip-path:url(#clip-path);}.cls-9{fill:#c33;}</style><clipPath id="clip-path"><circle class="cls-1" cx="167.76" cy="38.21" r="9.5" transform="translate(-4.25 42.34) rotate(-14.21)"/></clipPath></defs><title>대지 1</title><polygon class="cls-2" points="174.29 61.04 45.63 82.88 36.86 76.01 29.7 33.86 156.63 12.31 167.43 20.62 174.29 61.04"/><polygon class="cls-3" points="169.79 57.88 152.04 60.85 144.94 18.44 155.1 16.74 163.99 23.21 169.79 57.88"/><rect class="cls-4" x="145.16" y="22.17" width="4" height="7" transform="translate(-2.22 24.66) rotate(-9.51)"/><rect class="cls-4" x="152.41" y="47.24" width="5" height="7" transform="translate(-6.25 26.23) rotate(-9.49)"/><rect class="cls-5" x="39.35" y="27.96" width="111" height="36.63" transform="translate(-6.34 16.29) rotate(-9.5)"/><path class="cls-4" d="M52.92,45.69c-.37-2.2-.6-3.41-.86-4.63-.19-1-.72-3.36-.87-3.71a1.42,1.42,0,0,0-1.56-.73l-.84.14c-.13,0-.17,0-.2-.2l-.1-.62c0-.12,0-.18.21-.21s1.15-.12,3.09-.44c1.58-.26,2.2-.44,2.49-.49s.27,0,.3.15l.1.59c0,.12,0,.23-.09.24l-.74.12c-.45.07-.64.54-.57,1.44.09,1.69.61,7.34,1.15,10.6l.71,4.22c.06.37.11.82-.26.88a1.46,1.46,0,0,1-1.09-.22c-.51-.32-2-1.41-3.9-2.9-2.25-1.78-4.75-3.8-5.34-4.26s-4.88-4.06-5.62-4.77l-.21,0,.83,5c.34,2.05,1.09,5,1.27,6,.29,1.42.89,2.09,2,1.9l.66-.11c.18,0,.22,0,.25.19l.1.59c0,.15,0,.2-.18.23s-1.86.23-3.09.44c-.82.14-2.62.51-2.89.56-.11,0-.14,0-.17-.2l-.11-.64c0-.07,0-.15.13-.17l.92-.16c.58-.1.87-1,.72-2.63-.05-.47-.5-4.46-1.11-8.12l-.37-2.22c-.24-1.46-1.16-1.1-2.48-.9l-.66.09A7.59,7.59,0,0,1,34.09,39L34,38.34c0-.1,0-.15.13-.17s.35,0,.85-.12,1.38-.18,2.75-.41c.9-.15,1.68-.33,2-.38a1,1,0,0,1,.82.19l7.28,6c.44.36,5,4.23,5.39,4.51l.1,0Z"/><path class="cls-4" d="M57.89,36.41c-.13-.78-.37-1.1-.93-1l-1.24.21c-.16,0-.19,0-.22-.17l-.09-.53c0-.13,0-.18.21-.22S57.19,34.49,60,34c2.32-.39,3.57-.67,3.86-.71s.25,0,.27.14l.1.58c0,.11,0,.16-.19.19l-.9.15c-.9.15-1.27.65-1.25,1.1,0,.25.24,1.76.43,2.89l.25,1.46c.2,1.18.77,4,.92,4.68A4.11,4.11,0,0,0,64.73,47a4.62,4.62,0,0,0,3.5.69,6,6,0,0,0,2.94-1.5,4.38,4.38,0,0,0,1.05-3.89l-.57-3.42a36.16,36.16,0,0,0-1.17-4.75,1.11,1.11,0,0,0-1.14-.81l-.84.14c-.16,0-.2,0-.21-.15l-.1-.58c0-.11,0-.16.16-.19s1.49-.18,3.28-.48c1.42-.24,2.25-.45,2.49-.48s.28,0,.3.16l.08.49c0,.13,0,.23-.12.25l-.82.14c-1,.17-1,.8-1,1s.51,3.38.56,3.69.65,4.2.71,5.08A5.65,5.65,0,0,1,72.32,47a8.26,8.26,0,0,1-4.43,2.16,13.56,13.56,0,0,1-4.12.12,5.58,5.58,0,0,1-3.55-2.42c-.61-.88-1-2.35-1.45-5.25Z"/><path class="cls-4" d="M81.1,43.65c.22.81.85,2,1.72,1.83l1-.17c.16,0,.19,0,.21.13l.1.6c0,.09,0,.16-.21.2s-1,.1-2.93.42c-2.24.38-3.15.6-3.39.64s-.24,0-.27-.16l-.1-.58c0-.07,0-.14.14-.16l1.08-.18c.84-.14,1-1.21,1-1.94,0-1.62-.66-6.89-.73-7.29l-.59-3.39c-.17-1-.54-1.64-1.73-1.44l-.87.15c-.16,0-.2,0-.21-.12l-.1-.62c0-.07,0-.14.16-.16s1-.1,4.09-.62c1.24-.21,2-.41,2.36-.46a.57.57,0,0,1,.69.27c2.32,3.49,4.83,6.85,6.86,9.94.22-.47,1.53-4.93,1.64-5.27s1.82-6,1.87-6.45c0-.26.38-.34,1.17-.47,4.11-.69,5-.9,5.29-1,.13,0,.17,0,.19.17l.08.51c0,.13,0,.2-.18.24l-1.16.19c-.61.1-.62.51-.54,1s1,5.79,1.1,6.25,1,5.29,1,5.69c.14.84.44,1.16.81,1.1l1.27-.21c.16,0,.19,0,.21.13l.09.56c0,.13,0,.2-.2.24s-.8.06-3.91.59c-2.69.45-3.7.69-4,.75-.18,0-.22,0-.24-.16l-.09-.55c0-.11,0-.16.18-.19l1.48-.25c.45-.07.66-.25.61-.88,0-.27-.62-4.32-.88-5.87L94,29.86l-.16,0c-.2.42-2.14,6.95-2.46,7.94s-1.9,6.43-2,6.65-.23.56-.55.62-.37-.1-.54-.32-4.73-6.44-5-6.81c-.65-.94-3.9-5.51-4.16-5.74-.05.33.83,5.95.88,6.22S80.62,41.73,81.1,43.65Z"/><path class="cls-4" d="M104.85,32.75c-.14-.82-.64-3.52-.73-3.87-.29-1.27-.72-1.25-1.59-1.1l-.84.14c-.18,0-.19,0-.22-.17l-.09-.51c0-.13,0-.2.18-.24.34-.06,1.62-.2,4.12-.62.84-.14,2.41-.47,4.21-.77a12.11,12.11,0,0,1,4.6-.15A3.1,3.1,0,0,1,117,28.13c.25,1.46-.57,3.06-3.23,4.31v0c3.39.16,5.32,1.21,5.71,3.56A4,4,0,0,1,118,39.76c-1,.65-2.79,1.31-6.05,1.86-.24,0-.93.11-1.67.21s-1.59.2-2.09.28c-1.32.22-2.18.39-2.76.49l-1,.22c-.26,0-.3,0-.33-.2l-.08-.49c0-.13,0-.18.23-.22l.92-.15c.79-.13.88-.42.88-1.1,0-.52-.45-3.46-.75-5.28Zm4,.27a6.25,6.25,0,0,0,3.43-1.21A3.25,3.25,0,0,0,113.1,29a2.67,2.67,0,0,0-1.45-2.06,5.75,5.75,0,0,0-2.61-.38c-.55.09-1.13.21-1.1.57s.32,2.39.63,4.23Zm.86,5.15c.35,2.11,1.08,2.88,2.47,2.64,1.87-.31,3.51-1.38,3-4.16a3.42,3.42,0,0,0-2.95-3,10.32,10.32,0,0,0-3.3.17Z"/><path class="cls-4" d="M127.15,30.2a20.67,20.67,0,0,0,2.66-.58,2.27,2.27,0,0,0,1.1-.89,2.58,2.58,0,0,0,.38-1.48c0-.15,0-.21.18-.24l.72-.05c.13,0,.24,0,.24.14a19.21,19.21,0,0,0,.31,2.32,24.93,24.93,0,0,0,.58,2.5c0,.13-.05.17-.18.21l-.61.22c-.1,0-.16,0-.24-.14a6.08,6.08,0,0,0-.72-1,2.23,2.23,0,0,0-1.58-.54,21.69,21.69,0,0,0-2.71.32l.22,1.33c.2,1.2.69,3.33.76,3.73.19,1.15.55,1.51.91,1.58a7.08,7.08,0,0,0,2.25-.17c.45-.07,1.55-.28,2.1-.42a4.52,4.52,0,0,0,1.88-1.07,27.81,27.81,0,0,0,2.29-2.82c.09-.11.17-.14.25-.11l.49.15c.11,0,.15.09.14.16l-.63,3.55a.57.57,0,0,1-.52.43l-2.4.36c-1.71.29-4.51.73-9.07,1.49l-2.23.4c-.55.12-.89.2-1.12.23s-.25,0-.28-.2l-.08-.47c0-.13,0-.21.23-.24l.79-.13c1.21-.2,1.29-.38,1.16-1.15l-1.24-7.43c-.31-1.84-.82-4.56-.88-4.78-.22-.69-.51-.8-1.22-.69l-1,.17c-.11,0-.14,0-.17-.2l-.09-.53c0-.07,0-.16.16-.19.58-.1,1.51-.18,3.91-.58l9.24-1.57c.42-.07.91-.2,1-.22s.19,0,.23.08c.16.29,1.54,3.19,1.68,3.39s.08.15,0,.24l-.39.25a.26.26,0,0,1-.33,0,27.65,27.65,0,0,0-3.52-2,5,5,0,0,0-2.1-.26l-3.49.49Z"/><path class="cls-4" d="M140.85,26.26c-.27-1.64-.51-3.06-.64-3.66s-.55-1-.92-1l-1.05.18c-.13,0-.17,0-.18-.13l-.1-.6c0-.11,0-.16.13-.18s1.06-.11,3.94-.59c1.47-.25,3.78-.7,4.86-.88a7.49,7.49,0,0,1,4.91.69,3.33,3.33,0,0,1,1.91,2.17c.47,2.82-1.82,4.5-4.11,5.07l0,.16a3.51,3.51,0,0,1,1.93.88c.4.3,2.18,2,2.44,2.26s1.9,1.62,2.51,2a3.84,3.84,0,0,0,2,.14c.18,0,.22.05.24.14l.09.53c0,.13,0,.2-.18.23s-.91.08-2.94.42c-.76.13-1.73.33-2.49.49-.88-.38-2.94-2.68-3.51-3.36-1.15-1.36-2.5-2.82-3.77-2.61l-.9.15.19,1.13c.22,1.31.71,3.78.81,4.06.13.46.41.82.8.75l1.08-.18c.19,0,.22,0,.24.14l.09.53c0,.15,0,.2-.39.27,0,0-.7,0-3.46.51s-3.39.64-3.68.68-.23,0-.25-.19L140.4,36c0-.11,0-.18.1-.2l.79-.13c.58-.1,1-.33.94-.89-.32-2.2-.66-4.29-1-6.4ZM144.94,28c.5-.06.82-.11,1.06-.15a4.05,4.05,0,0,0,3.65-4.56A3.41,3.41,0,0,0,148.24,21a5.23,5.23,0,0,0-3.09-.49,1.76,1.76,0,0,0-1,.37.88.88,0,0,0-.19.65Z"/><path class="cls-4" d="M40.87,62.88c-.14-.84-.65-3.61-.73-4-.29-1.31-.66-1.29-1.4-1.17l-.72.12c-.16,0-.16,0-.19-.18l-.09-.52c0-.14,0-.21.15-.23s1.39-.16,3.54-.52c.72-.12,2.07-.42,3.6-.67a8.83,8.83,0,0,1,4,0,3.24,3.24,0,0,1,2.26,2.8c.25,1.5-.41,3.11-2.67,4.31v0c2.92.26,4.62,1.38,5,3.79a4.23,4.23,0,0,1-1.18,3.75,12.16,12.16,0,0,1-5.17,1.73c-.2,0-.8.08-1.44.17s-1.37.16-1.8.23c-1.13.19-1.87.34-2.37.42l-.87.19c-.23,0-.26,0-.29-.21l-.08-.5c0-.14,0-.19.2-.22l.79-.13c.68-.11.74-.41.72-1.1,0-.53-.48-3.55-.79-5.41Zm3.46.38a4.6,4.6,0,0,0,2.92-1.15,3.61,3.61,0,0,0,.64-2.87,3,3,0,0,0-1.31-2.14,4.4,4.4,0,0,0-2.26-.46c-.47.08-1,.19-.93.55s.34,2.44.65,4.33Zm.88,5.28c.36,2.16,1,3,2.2,2.77,1.6-.27,3-1.32,2.51-4.16A3.52,3.52,0,0,0,47.3,64a7.45,7.45,0,0,0-2.84.08Z"/><path class="cls-4" d="M58.38,62a20.67,20.67,0,0,0-.68,3.83.81.81,0,0,0,1,.73l.79-.13c.23,0,.26,0,.27.11l.07.42c0,.15,0,.21-.17.24s-1.23.15-3.08.46c-1.65.28-2.14.41-2.45.47-.14,0-.18-.09-.2-.22l-.06-.36c0-.12,0-.17.13-.2l.59-.1A2,2,0,0,0,56,66.17c.25-.45,1.3-4,1.77-5.82.12-.41,1.26-4.8,1.38-5.35,0-.2.11-.47-.08-.65s-.19-.15-.2-.22,0-.14.2-.21a7.93,7.93,0,0,0,2.37-1.37c.1-.12.15-.2.27-.22s.2.08.3.28c.63,1.13,3.1,5.09,3.74,6.23.77,1.4,2.83,4.68,3.23,5.14a1.71,1.71,0,0,0,1.45.64l.77-.13c.14,0,.17,0,.19.14l.06.36c0,.11,0,.25-.16.28-.43.07-.91.09-3.81.58-1.88.31-2.66.5-3.11.58-.23,0-.27-.07-.29-.21L64,65.87c0-.1,0-.18.11-.19l.63-.11c.61-.1.78-.33.56-.8-.32-.65-1.61-2.93-2-3.57ZM63,60.47c-.3-.54-2.3-4.3-2.54-4.75-.14-.27-.21-.4-.32-.38s-.19.11-.23.29-1.27,5.08-1.37,5.58Z"/><path class="cls-4" d="M72.89,60.63c.09,0,.16,0,.18.13a4.63,4.63,0,0,0,1.26,2,3.57,3.57,0,0,0,3.06.82c1.09-.18,2.72-1.08,2.47-2.58s-.7-2-3.8-2.41a13,13,0,0,1-3.55-1.11A3.29,3.29,0,0,1,70.94,55a3,3,0,0,1,1.23-3.08,5.49,5.49,0,0,1,3.1-1.46,9.59,9.59,0,0,1,3.07-.12.47.47,0,0,0,.5-.18l.25-.3a.52.52,0,0,1,.32-.17c.16,0,.24.17.28.29l.9,3.19c0,.08,0,.1-.09.13l-.47.22a.23.23,0,0,1-.32-.08A5.69,5.69,0,0,0,78,51.66a3.09,3.09,0,0,0-2.39-.42,2.26,2.26,0,0,0-2.11,2.13A2,2,0,0,0,74.37,55a8.28,8.28,0,0,0,3.19.74,7.72,7.72,0,0,1,3.13,1,3.2,3.2,0,0,1,1.71,2.62c.39,2.32-1.26,4.53-4.25,5A7.72,7.72,0,0,1,74,64.22a1.21,1.21,0,0,0-.56-.12c-.14,0-.2.17-.31.38a.41.41,0,0,1-.37.29c-.25,0-.35,0-.37-.25l-.24-3.67c0-.14.07-.15.16-.16Z"/><path class="cls-4" d="M89.16,54.75a17.69,17.69,0,0,0,2.29-.5,1.94,1.94,0,0,0,.94-.76,2.22,2.22,0,0,0,.32-1.26c0-.13,0-.18.15-.2l.62,0c.12,0,.21,0,.21.12a16.65,16.65,0,0,0,.26,2,21.12,21.12,0,0,0,.5,2.14c0,.11,0,.14-.16.18l-.53.19c-.09,0-.14,0-.21-.12a5.48,5.48,0,0,0-.61-.89,1.92,1.92,0,0,0-1.36-.46,18.72,18.72,0,0,0-2.32.27l.19,1.14c.17,1,.59,2.85.65,3.19.17,1,.47,1.29.78,1.35a6.07,6.07,0,0,0,1.93-.15c.38-.06,1.33-.24,1.8-.36a3.87,3.87,0,0,0,1.61-.91,24.06,24.06,0,0,0,2-2.42c.08-.09.14-.12.22-.09l.42.13c.1,0,.13.08.12.14l-.54,3a.48.48,0,0,1-.45.37l-2.06.31L88.12,62.4l-1.92.34-1,.2c-.16,0-.21,0-.24-.17l-.07-.4c0-.12,0-.18.2-.21l.68-.11c1-.17,1.11-.32,1-1L85.74,54.7c-.26-1.58-.7-3.9-.75-4.09-.19-.59-.44-.69-1.05-.58l-.88.15c-.09,0-.12,0-.14-.17l-.08-.46c0-.06,0-.14.14-.16.5-.08,1.3-.16,3.35-.5l7.93-1.35c.36-.06.78-.17.9-.19s.17,0,.2.06c.14.25,1.32,2.73,1.44,2.9s.07.13,0,.2l-.34.21a.23.23,0,0,1-.29,0,23.67,23.67,0,0,0-3-1.68,4.28,4.28,0,0,0-1.8-.22l-3,.42Z"/><path class="cls-4" d="M101,51.76c-.12-.7-.55-3-.62-3.31-.25-1.09-.62-1.07-1.37-.94l-.72.12c-.16,0-.16,0-.19-.15L98,47c0-.11,0-.18.15-.2s1.39-.17,3.53-.53c.73-.12,2.07-.41,3.61-.66a10.4,10.4,0,0,1,3.95-.13,2.65,2.65,0,0,1,2.17,2.29c.21,1.25-.49,2.62-2.77,3.69v0c2.9.14,4.56,1,4.9,3a3.39,3.39,0,0,1-1.28,3.18,14.27,14.27,0,0,1-5.19,1.59l-1.43.18c-.66.07-1.37.17-1.79.24l-2.37.42-.88.19c-.23,0-.26,0-.28-.17l-.07-.42c0-.11,0-.16.2-.19l.79-.13c.68-.11.75-.36.75-.94s-.38-3-.64-4.52Zm3.43.23a5.39,5.39,0,0,0,2.94-1,2.8,2.8,0,0,0,.71-2.42,2.29,2.29,0,0,0-1.25-1.76,4.94,4.94,0,0,0-2.24-.33c-.47.08-1,.18-.94.49s.27,2,.54,3.62Zm.74,4.41c.3,1.81.92,2.46,2.12,2.26,1.6-.27,3-1.19,2.61-3.56a2.93,2.93,0,0,0-2.53-2.6,8.82,8.82,0,0,0-2.83.14Z"/><path class="cls-4" d="M118.65,51.94a20.6,20.6,0,0,0-.68,3.83.81.81,0,0,0,1,.73l.79-.13c.23,0,.26,0,.28.11l.07.42c0,.15,0,.21-.17.24s-1.23.15-3.08.46c-1.65.28-2.14.42-2.45.47-.14,0-.18-.09-.2-.22l-.06-.36c0-.11,0-.17.13-.2l.59-.1a2,2,0,0,0,1.4-1.09c.25-.45,1.3-4,1.77-5.82.12-.41,1.27-4.8,1.38-5.35,0-.2.11-.47-.09-.65s-.19-.14-.2-.22,0-.14.2-.21a7.9,7.9,0,0,0,2.37-1.37c.1-.11.15-.2.27-.22s.2.08.3.28c.63,1.13,3.1,5.09,3.74,6.23.77,1.4,2.83,4.68,3.23,5.14a1.71,1.71,0,0,0,1.46.64l.77-.13c.14,0,.17,0,.19.15l.06.36c0,.12,0,.25-.16.28-.43.07-.91.09-3.81.58-1.88.31-2.66.5-3.11.58-.23,0-.27-.07-.29-.21l-.06-.36c0-.1,0-.17.11-.19l.63-.11c.61-.1.78-.33.57-.8-.32-.65-1.61-2.93-2-3.57Zm4.62-1.55c-.3-.54-2.3-4.3-2.54-4.75-.14-.27-.21-.4-.32-.38s-.19.11-.23.29-1.26,5.07-1.37,5.58Z"/><path class="cls-4" d="M136.62,48.17c.05.32.74,4.43.94,5.18l1.29-.21c1.06-.18,2.08-.35,3.28-.65s2.36-2.83,2.58-3.59c0-.13.11-.2.25-.16l.48.08c.07,0,.08,0,.07.16s-.42,3.43-.48,4c-.59.06-7.11,1.13-9.18,1.48-2.24.37-3,.57-3.34.62s-.19,0-.21-.14l-.08-.48c0-.09,0-.14.14-.16l.7-.12c.84-.14.93-.43.89-.64-.06-.36-.78-5.1-1-6.26l-.18-1.06c-.2-1.22-.59-3.22-.66-3.52-.13-.49-.27-.66-.79-.57l-.84.14c-.14,0-.17-.07-.19-.16l-.08-.46c0-.09,0-.14.13-.16s1.07-.12,3.13-.46c2.64-.44,3.58-.66,3.79-.69s.21,0,.24.16l.07.44c0,.09,0,.16-.2.19l-1.06.18c-.7.12-.76.32-.67.84,0,.25.45,3.13.68,4.46Z"/><path class="cls-4" d="M150.91,45.78c.05.32.74,4.43.94,5.17l1.29-.21c1.06-.18,2.08-.35,3.28-.65s2.36-2.84,2.58-3.6c0-.13.11-.19.25-.16l.48.08c.07,0,.08,0,.07.16s-.42,3.43-.48,4c-.59.06-7.1,1.13-9.18,1.48-2.24.38-3,.57-3.34.62s-.19,0-.21-.14l-.08-.47c0-.09,0-.14.14-.16l.7-.12c.84-.14.93-.43.89-.64-.06-.36-.78-5.1-1-6.26l-.18-1.06c-.2-1.22-.58-3.22-.66-3.52-.13-.49-.27-.66-.79-.57l-.84.14c-.14,0-.17-.07-.19-.16l-.08-.46c0-.1,0-.14.14-.16s1.07-.12,3.13-.46c2.64-.44,3.58-.66,3.79-.69s.21,0,.24.16l.07.44c0,.09,0,.16-.2.19l-1.07.18c-.7.12-.76.32-.67.84,0,.25.45,3.13.67,4.46Z"/><path class="cls-6" d="M55.11,45.71c-.33-2-.54-3.06-.78-4.16-.17-.86-.67-3-.8-3.33A1.42,1.42,0,0,0,52,37.59l-.84.14c-.13,0-.17,0-.19-.17L50.86,37c0-.11,0-.16.21-.19s1.14-.12,3.09-.45c1.58-.26,2.2-.44,2.49-.49s.27,0,.29.13l.09.53c0,.11,0,.2-.1.22l-.74.12c-.45.07-.65.5-.59,1.31.06,1.52.48,6.6,1,9.53l.64,3.79c.06.33.1.74-.27.8a1.55,1.55,0,0,1-1.09-.18c-.51-.28-2-1.24-3.84-2.55-2.21-1.57-4.68-3.35-5.26-3.75s-4.8-3.58-5.53-4.21l-.21,0,.75,4.48c.31,1.84,1,4.53,1.17,5.37.27,1.28.85,1.86,2,1.68l.66-.11c.18,0,.22,0,.24.16l.09.53c0,.13,0,.18-.18.21s-1.85.24-3.09.45c-.82.14-2.62.51-2.89.55-.11,0-.14,0-.17-.18l-.1-.58c0-.07,0-.14.14-.16l.92-.15c.58-.1.88-.88.77-2.39,0-.42-.43-4-1-7.29l-.33-2A2.51,2.51,0,0,0,37.29,40l-.66.09a.14.14,0,0,1-.19-.13l-.1-.6c0-.09,0-.14.14-.16s.35,0,.85-.12,1.38-.19,2.75-.41c.9-.15,1.68-.33,2-.38a1,1,0,0,1,.81.16L50,43.77c.43.32,5,3.73,5.3,4l.11,0Z"/><path class="cls-6" d="M60.22,37.37c-.13-.78-.37-1.1-.93-1l-1.24.21c-.16,0-.19,0-.22-.17l-.09-.53c0-.13,0-.18.21-.22s1.57-.19,4.33-.66c2.32-.39,3.57-.67,3.86-.71s.24,0,.27.14l.1.58c0,.11,0,.16-.19.19l-.9.15c-.9.15-1.27.65-1.25,1.1,0,.25.24,1.76.43,2.89l.24,1.46c.2,1.18.77,4,.92,4.68A4.12,4.12,0,0,0,67.06,48a4.62,4.62,0,0,0,3.5.69,6,6,0,0,0,2.94-1.5,4.38,4.38,0,0,0,1.06-3.89L74,39.86a36.29,36.29,0,0,0-1.17-4.75,1.11,1.11,0,0,0-1.14-.81l-.84.14c-.16,0-.2,0-.21-.15l-.1-.58c0-.11,0-.16.16-.19S72.17,33.34,74,33c1.42-.24,2.25-.45,2.49-.49s.28,0,.3.16l.08.49c0,.13,0,.23-.12.25l-.82.14c-1,.17-1,.8-1,1s.51,3.38.56,3.69.65,4.2.71,5.08A5.64,5.64,0,0,1,74.65,48a8.27,8.27,0,0,1-4.43,2.16,13.56,13.56,0,0,1-4.12.12,5.58,5.58,0,0,1-3.55-2.42c-.61-.88-1-2.35-1.45-5.25Z"/><path class="cls-6" d="M83.43,44.62c.22.81.85,2,1.71,1.83l1-.17c.16,0,.19,0,.21.13l.1.6c0,.09,0,.16-.21.2s-1,.1-2.94.42c-2.24.37-3.15.6-3.39.63s-.24,0-.27-.16l-.1-.58c0-.07,0-.14.14-.16l1.08-.18c.84-.14,1-1.21,1-1.94,0-1.62-.67-6.89-.73-7.29l-.59-3.39c-.17-1-.54-1.64-1.73-1.44l-.87.15c-.16,0-.2,0-.21-.12l-.1-.62c0-.07,0-.14.16-.16s1-.1,4.09-.62c1.24-.21,2-.41,2.36-.46a.57.57,0,0,1,.69.27c2.32,3.49,4.83,6.85,6.86,9.94.22-.47,1.53-4.93,1.64-5.27s1.82-6,1.87-6.45c0-.26.38-.34,1.17-.47,4.11-.69,5-.9,5.29-1,.13,0,.17,0,.19.17l.09.51c0,.13,0,.2-.18.23l-1.16.19c-.61.1-.62.51-.54,1s1,5.79,1.1,6.25,1,5.29,1,5.69c.14.84.44,1.16.8,1.1l1.26-.21c.16,0,.2,0,.21.12l.09.55c0,.13,0,.2-.2.24s-.8.07-3.91.59c-2.69.45-3.7.69-4,.75-.18,0-.22,0-.24-.16l-.09-.55c0-.11,0-.16.18-.19l1.48-.25c.45-.07.66-.25.61-.88,0-.27-.62-4.32-.88-5.87l-1.13-6.77-.16,0c-.2.42-2.14,6.95-2.46,7.94s-1.9,6.43-2,6.65-.23.56-.55.62-.37-.1-.54-.32-4.73-6.44-5-6.81c-.65-.94-3.9-5.51-4.16-5.74-.05.33.83,6,.88,6.22S82.95,42.69,83.43,44.62Z"/><path class="cls-6" d="M107.18,33.71c-.14-.82-.64-3.52-.73-3.87-.29-1.27-.72-1.25-1.59-1.1l-.84.14c-.18,0-.19,0-.22-.17l-.09-.51c0-.13,0-.2.18-.23.34-.06,1.62-.2,4.12-.62.84-.14,2.41-.47,4.2-.77a12.11,12.11,0,0,1,4.6-.15,3.1,3.1,0,0,1,2.54,2.68c.24,1.46-.57,3.06-3.23,4.31v0c3.39.16,5.32,1.21,5.71,3.56a4,4,0,0,1-1.49,3.72c-1,.65-2.79,1.31-6.05,1.86l-1.67.21c-.77.08-1.59.2-2.09.28-1.32.22-2.18.39-2.76.49l-1,.22c-.26,0-.3,0-.33-.2l-.08-.49c0-.13,0-.18.23-.22l.92-.15c.79-.13.88-.42.87-1.1,0-.52-.44-3.46-.75-5.28Zm4,.27a6.23,6.23,0,0,0,3.43-1.21,3.25,3.25,0,0,0,.82-2.83A2.67,2.67,0,0,0,114,27.88a5.74,5.74,0,0,0-2.61-.38c-.55.09-1.13.21-1.1.57s.32,2.39.63,4.23Zm.86,5.15c.35,2.11,1.08,2.88,2.47,2.64,1.87-.31,3.5-1.38,3-4.16a3.42,3.42,0,0,0-2.95-3,10.32,10.32,0,0,0-3.31.17Z"/><path class="cls-6" d="M129.49,31.17a20.8,20.8,0,0,0,2.66-.58,2.26,2.26,0,0,0,1.1-.89,2.6,2.6,0,0,0,.38-1.48c0-.16,0-.21.18-.24l.72-.05c.13,0,.24,0,.24.14a19,19,0,0,0,.31,2.32,24.66,24.66,0,0,0,.58,2.5c0,.13-.05.17-.18.21l-.61.22c-.1,0-.16,0-.24-.14a6.09,6.09,0,0,0-.72-1,2.23,2.23,0,0,0-1.58-.53,21.7,21.7,0,0,0-2.71.32l.22,1.33c.2,1.2.69,3.33.76,3.73.19,1.15.55,1.5.91,1.58a7.08,7.08,0,0,0,2.25-.17c.45-.08,1.55-.28,2.1-.42a4.51,4.51,0,0,0,1.88-1.07A28.12,28.12,0,0,0,140,34.08c.09-.11.17-.14.25-.11l.49.15c.11,0,.15.09.13.16l-.62,3.55a.57.57,0,0,1-.52.43l-2.41.36c-1.71.29-4.51.73-9.07,1.49l-2.23.4-1.13.23c-.19,0-.25,0-.28-.21l-.08-.47c0-.13,0-.21.23-.24l.79-.13c1.21-.2,1.29-.37,1.16-1.15l-1.24-7.43c-.31-1.84-.82-4.56-.88-4.78-.22-.69-.51-.8-1.22-.68l-1,.17c-.1,0-.14,0-.17-.2l-.09-.53c0-.07,0-.16.16-.19.58-.1,1.51-.19,3.91-.59l9.24-1.57c.42-.07.92-.2,1-.22s.19,0,.23.08c.16.29,1.54,3.19,1.68,3.39s.08.15,0,.24l-.39.25a.26.26,0,0,1-.33,0,27.7,27.7,0,0,0-3.53-2,5,5,0,0,0-2.1-.26l-3.49.49Z"/><path class="cls-6" d="M143.19,27.23c-.27-1.64-.51-3.06-.64-3.66s-.55-1-.92-1l-1.05.18c-.13,0-.17,0-.18-.13l-.1-.6c0-.11,0-.16.13-.18s1.06-.11,3.94-.59c1.48-.25,3.78-.7,4.86-.88a7.51,7.51,0,0,1,4.91.69A3.34,3.34,0,0,1,156,23.23c.47,2.82-1.82,4.5-4.11,5.07l0,.15a3.5,3.5,0,0,1,1.93.89c.4.3,2.18,2,2.44,2.26s1.9,1.62,2.51,2a3.85,3.85,0,0,0,2,.14c.18,0,.23.05.24.14l.09.53c0,.13,0,.2-.18.24s-.91.08-2.94.42c-.76.13-1.73.34-2.49.48-.88-.38-2.94-2.68-3.52-3.36-1.15-1.36-2.5-2.82-3.77-2.61l-.9.15.19,1.13c.22,1.31.71,3.78.81,4.06.13.46.41.82.8.75l1.08-.18c.19,0,.22,0,.24.14l.09.53c0,.15,0,.2-.39.27,0,0-.7,0-3.46.51s-3.39.64-3.68.68-.22,0-.25-.19l-.09-.51c0-.11,0-.18.1-.2l.79-.13c.58-.1,1-.33.94-.89-.32-2.21-.66-4.29-1-6.4ZM147.28,29c.5-.06.82-.12,1.06-.15A4.05,4.05,0,0,0,152,24.3,3.42,3.42,0,0,0,150.57,22a5.23,5.23,0,0,0-3.09-.49,1.77,1.77,0,0,0-1,.37.89.89,0,0,0-.19.65Z"/><path class="cls-6" d="M43,62.81c-.12-.7-.55-3-.62-3.31-.25-1.09-.62-1.07-1.37-.94,0,0-.9.36-.91,0l-.07-.44a21.15,21.15,0,0,1,3.69-.73c.72-.12,2.07-.41,3.61-.66a10.42,10.42,0,0,1,4-.13,2.65,2.65,0,0,1,2.17,2.29c.21,1.25-.49,2.62-2.77,3.69v0c2.9.14,4.56,1,4.9,3a3.39,3.39,0,0,1-1.28,3.18,14.27,14.27,0,0,1-5.19,1.59l-1.43.18c-.66.07-1.37.17-1.79.24l-2.37.42-.88.19c-.23,0-.26,0-.28-.17l-.07-.42c0-.11,0-.16.2-.19l.79-.13c.68-.11.75-.36.75-.94s-.38-3-.64-4.52Zm3.43.23a5.36,5.36,0,0,0,2.94-1,2.79,2.79,0,0,0,.71-2.42,2.29,2.29,0,0,0-1.25-1.76,4.92,4.92,0,0,0-2.24-.33c-.47.08-1,.18-.94.49s.27,2,.54,3.62Zm.74,4.41c.3,1.8.92,2.46,2.12,2.26,1.61-.27,3-1.19,2.61-3.56a2.93,2.93,0,0,0-2.53-2.6,8.83,8.83,0,0,0-2.83.14Z"/><path class="cls-6" d="M60.71,63A20.68,20.68,0,0,0,60,66.82a.81.81,0,0,0,1,.73l.79-.13c.23,0,.26,0,.28.11l.07.42c0,.15,0,.21-.17.24s-1.23.15-3.08.46c-1.65.28-2.14.42-2.45.47-.14,0-.18-.09-.2-.22l-.06-.36c0-.11,0-.18.13-.2l.59-.1a2,2,0,0,0,1.4-1.09c.25-.45,1.3-4,1.77-5.82.12-.41,1.26-4.8,1.38-5.35,0-.2.11-.47-.09-.65s-.19-.15-.2-.22,0-.14.2-.21a7.9,7.9,0,0,0,2.37-1.37c.1-.12.15-.2.27-.22s.2.08.3.28c.63,1.13,3.1,5.09,3.74,6.23.77,1.4,2.83,4.68,3.23,5.14a1.7,1.7,0,0,0,1.45.63l.77-.13c.14,0,.17,0,.19.14l.06.36c0,.12,0,.25-.16.28-.43.07-.91.09-3.81.58-1.88.31-2.66.5-3.11.58-.23,0-.27-.07-.29-.21l-.06-.36c0-.1,0-.18.11-.19l.63-.11c.61-.1.78-.33.56-.8-.32-.65-1.61-2.93-2-3.57Zm4.62-1.55c-.3-.54-2.3-4.3-2.54-4.75-.14-.27-.21-.4-.32-.38s-.19.11-.23.29S61,61.68,60.88,62.18Z"/><path class="cls-6" d="M75.22,61.6c.09,0,.16,0,.18.13a4.63,4.63,0,0,0,1.26,2,3.58,3.58,0,0,0,3.06.82c1.09-.18,2.72-1.08,2.47-2.58s-.7-2-3.8-2.41a12.93,12.93,0,0,1-3.55-1.11,3.29,3.29,0,0,1-1.58-2.51,3,3,0,0,1,1.23-3.08,5.49,5.49,0,0,1,3.1-1.46,9.63,9.63,0,0,1,3.07-.12.47.47,0,0,0,.5-.18l.25-.3a.52.52,0,0,1,.32-.17c.16,0,.24.17.28.29l.91,3.19c0,.08,0,.1-.09.13l-.47.21a.23.23,0,0,1-.32-.08,5.7,5.7,0,0,0-1.73-1.74,3.09,3.09,0,0,0-2.39-.42,2.26,2.26,0,0,0-2.11,2.13A2,2,0,0,0,76.7,56a8.29,8.29,0,0,0,3.19.74,7.73,7.73,0,0,1,3.13,1,3.21,3.21,0,0,1,1.72,2.62c.39,2.32-1.26,4.53-4.25,5a7.73,7.73,0,0,1-4.18-.14,1.21,1.21,0,0,0-.55-.12c-.14,0-.2.17-.31.38a.41.41,0,0,1-.37.29c-.25,0-.35,0-.37-.25l-.24-3.67c0-.14.07-.15.16-.16Z"/><path class="cls-6" d="M91.49,55.71a17.77,17.77,0,0,0,2.29-.5,2,2,0,0,0,.94-.76A2.23,2.23,0,0,0,95,53.19c0-.13,0-.18.15-.2l.62,0c.12,0,.21,0,.21.12a16.19,16.19,0,0,0,.26,2,21.37,21.37,0,0,0,.5,2.15c0,.11,0,.14-.15.18l-.53.19c-.09,0-.14,0-.21-.12a5.54,5.54,0,0,0-.61-.89,1.92,1.92,0,0,0-1.36-.46,18.66,18.66,0,0,0-2.32.27l.19,1.14c.17,1,.59,2.85.65,3.19.16,1,.47,1.29.78,1.35a6.11,6.11,0,0,0,1.93-.15c.38-.06,1.33-.24,1.8-.36a3.86,3.86,0,0,0,1.61-.91,24.09,24.09,0,0,0,2-2.42c.08-.09.14-.12.22-.09l.42.13c.09,0,.13.07.11.14l-.54,3a.49.49,0,0,1-.45.37l-2.06.31c-1.47.25-3.87.63-7.78,1.28l-1.92.34-1,.2c-.16,0-.21,0-.24-.18l-.07-.4c0-.11,0-.18.2-.21l.68-.11c1-.17,1.11-.32,1-1l-1.07-6.37c-.26-1.58-.7-3.9-.75-4.09-.19-.59-.44-.69-1-.59l-.88.15c-.09,0-.12,0-.14-.17l-.08-.46c0-.06,0-.14.13-.16.5-.08,1.3-.16,3.35-.5l7.93-1.35c.36-.06.78-.17.9-.19s.17,0,.2.07c.13.25,1.32,2.73,1.44,2.9s.07.13,0,.2l-.34.21a.23.23,0,0,1-.29,0,23.76,23.76,0,0,0-3-1.68,4.31,4.31,0,0,0-1.8-.22l-3,.42Z"/><path class="cls-6" d="M103.3,52.72c-.12-.7-.55-3-.62-3.31-.25-1.09-.62-1.07-1.37-.94l-.72.12c-.16,0-.16,0-.19-.14l-.07-.44c0-.11,0-.17.15-.2s1.39-.17,3.53-.53c.72-.12,2.07-.41,3.61-.66a10.42,10.42,0,0,1,4-.13,2.66,2.66,0,0,1,2.17,2.29c.21,1.25-.49,2.62-2.78,3.69v0c2.9.14,4.56,1,4.9,3a3.39,3.39,0,0,1-1.28,3.18,14.3,14.3,0,0,1-5.19,1.59L108,60.5c-.66.07-1.37.17-1.79.24l-2.37.42-.87.19c-.22,0-.26,0-.28-.17l-.07-.42c0-.11,0-.16.2-.19l.79-.13c.68-.11.75-.36.75-.94s-.38-3-.64-4.52Zm3.43.23a5.36,5.36,0,0,0,2.94-1,2.79,2.79,0,0,0,.71-2.42,2.28,2.28,0,0,0-1.25-1.76,4.93,4.93,0,0,0-2.24-.33c-.47.08-1,.18-.94.49s.27,2,.54,3.62Zm.74,4.41c.3,1.8.92,2.46,2.12,2.26,1.6-.27,3-1.19,2.61-3.56a2.93,2.93,0,0,0-2.53-2.6,8.78,8.78,0,0,0-2.83.14Z"/><path class="cls-6" d="M121,52.91a20.94,20.94,0,0,0-.68,3.83.82.82,0,0,0,1,.73l.79-.13c.23,0,.26,0,.27.11l.07.42c0,.15,0,.21-.17.25s-1.23.15-3.08.46c-1.65.28-2.14.42-2.46.47-.14,0-.18-.09-.2-.22l-.06-.36c0-.11,0-.17.13-.2l.59-.1a2,2,0,0,0,1.4-1.09c.25-.45,1.3-4,1.77-5.82.12-.41,1.27-4.8,1.38-5.35,0-.2.11-.47-.09-.65s-.19-.14-.2-.22,0-.14.2-.21A7.9,7.9,0,0,0,124,43.43c.1-.11.15-.2.27-.22s.2.08.3.28c.63,1.13,3.1,5.08,3.74,6.23.77,1.4,2.83,4.68,3.23,5.14a1.71,1.71,0,0,0,1.45.63l.77-.13c.14,0,.17,0,.19.14l.06.36c0,.12,0,.25-.16.28-.43.07-.91.09-3.81.58-1.88.31-2.66.5-3.11.58-.23,0-.27-.07-.29-.21l-.06-.36c0-.1,0-.17.11-.19l.63-.11c.61-.1.78-.33.56-.8-.32-.65-1.6-2.93-2-3.57Zm4.62-1.55c-.3-.54-2.3-4.3-2.54-4.75-.14-.27-.21-.39-.32-.38s-.19.11-.23.29-1.26,5.07-1.37,5.58Z"/><path class="cls-6" d="M138.95,49.14c.05.32.74,4.43.94,5.17l1.29-.22c1.06-.18,2.08-.35,3.28-.65s2.36-2.84,2.58-3.59c0-.12.11-.19.25-.16l.48.08c.07,0,.08,0,.07.16s-.43,3.43-.48,4c-.59.06-7.1,1.13-9.18,1.48-2.24.38-3,.57-3.33.62s-.19,0-.21-.14l-.08-.48c0-.09,0-.13.13-.16l.7-.12c.83-.14.93-.43.89-.64-.06-.36-.78-5.1-1-6.26l-.18-1.06c-.2-1.22-.59-3.22-.66-3.52-.13-.49-.27-.66-.79-.57l-.84.14c-.14,0-.17-.07-.19-.16l-.08-.46c0-.1,0-.14.14-.16s1.07-.12,3.13-.46c2.64-.44,3.58-.66,3.79-.69s.21,0,.24.16l.07.44c0,.09,0,.16-.2.19l-1.06.18c-.7.12-.76.32-.67.83,0,.25.45,3.13.67,4.46Z"/><path class="cls-6" d="M153.25,46.75c.05.32.74,4.43.94,5.17l1.29-.22c1.06-.18,2.08-.35,3.28-.65s2.36-2.84,2.58-3.59c0-.13.11-.19.25-.16l.48.08c.07,0,.08,0,.07.16s-.42,3.43-.47,4c-.59.06-7.11,1.13-9.18,1.48-2.24.38-3,.57-3.34.62s-.19,0-.21-.14l-.08-.47c0-.09,0-.14.13-.16l.7-.12c.84-.14.93-.43.89-.64s-.78-5.1-1-6.26l-.18-1.06c-.2-1.22-.58-3.22-.66-3.52-.13-.49-.27-.66-.79-.57l-.84.14c-.14,0-.17-.07-.19-.16l-.08-.46c0-.09,0-.14.13-.16s1.07-.12,3.13-.46c2.64-.44,3.58-.66,3.79-.69s.21,0,.23.16l.07.44c0,.09,0,.16-.2.19l-1.06.18c-.7.12-.76.32-.67.84,0,.25.45,3.13.67,4.46Z"/><polygon class="cls-3" points="169.59 57.91 46.7 78.48 40.01 73.51 163.9 52.78 169.59 57.91"/><circle class="cls-3" cx="167.76" cy="38.21" r="12.56" transform="translate(-4.25 42.34) rotate(-14.21)"/><g class="cls-7"><circle class="cls-8" cx="167.76" cy="38.21" r="9.5" transform="translate(-4.25 42.34) rotate(-14.21)"/><path class="cls-9" d="M182.18,45.29a9.71,9.71,0,1,1,7-11.79A9.72,9.72,0,0,1,182.18,45.29Zm-4.66-18.41A9.29,9.29,0,1,0,188.8,33.6,9.3,9.3,0,0,0,177.52,26.88Z"/><polygon class="cls-9" points="172.45 32.15 170.47 30.69 170.72 30.35 172.71 31.81 172.45 32.15"/><rect class="cls-9" x="170.52" y="32.06" width="0.42" height="2.46" transform="translate(62.68 169.61) rotate(-62.63)"/><rect class="cls-9" x="170.13" y="34.25" width="0.42" height="2.46" transform="translate(120.04 202.05) rotate(-84.96)"/><polygon class="cls-9" points="171.67 37.6 169.22 37.87 169.18 37.45 171.62 37.19 171.67 37.6"/><rect class="cls-9" x="169.77" y="39.61" width="2.46" height="0.42" transform="translate(-3.63 57.96) rotate(-19.04)"/><rect class="cls-9" x="171" y="41.77" width="2.46" height="0.42" transform="translate(-1.5 77.26) rotate(-25.18)"/><rect class="cls-9" x="173.02" y="43.23" width="2.46" height="0.42" transform="translate(3.42 98.82) rotate(-31.96)"/><path class="cls-9" d="M157.87,51.45a9.71,9.71,0,1,1,7-11.79A9.72,9.72,0,0,1,157.87,51.45ZM153.21,33a9.29,9.29,0,1,0,11.28,6.72A9.3,9.3,0,0,0,153.21,33Z"/><rect class="cls-9" x="159.27" y="33.84" width="2.46" height="0.42" transform="translate(61.88 165.19) rotate(-65.03)"/><polygon class="cls-9" points="161.71 36.58 161.36 36.34 162.75 34.31 163.1 34.54 161.71 36.58"/><polygon class="cls-9" points="162.71 38.04 162.47 37.69 164.53 36.33 164.76 36.68 162.71 38.04"/><rect class="cls-9" x="163.29" y="38.81" width="2.46" height="0.42" transform="translate(-2.51 65.27) rotate(-22.28)"/><polygon class="cls-9" points="166.35 41.32 163.92 41.72 163.85 41.3 166.28 40.91 166.35 41.32"/><polygon class="cls-9" points="166.28 43.94 163.82 44.08 163.8 43.66 166.26 43.52 166.28 43.94"/><rect class="cls-9" x="163.75" y="44.82" width="0.42" height="2.46" transform="translate(107.35 206.67) rotate(-86.27)"/></g><polygon class="cls-2" points="156.51 12.33 148.03 13.77 136.11 6.66 156.51 12.33"/><polygon class="cls-2" points="143.08 14.61 134.43 16.08 122.31 9.01 143.08 14.61"/><polygon class="cls-2" points="128.29 17.12 119.64 18.59 107.52 11.52 128.29 17.12"/><polygon class="cls-2" points="112.52 19.8 103.87 21.27 91.74 14.2 112.52 19.8"/><polygon class="cls-2" points="97.73 22.31 89.08 23.78 76.96 16.71 97.73 22.31"/><polygon class="cls-2" points="82.94 24.82 74.29 26.29 62.17 19.22 82.94 24.82"/><polygon class="cls-2" points="68.15 27.33 59.5 28.8 47.38 21.73 68.15 27.33"/><polygon class="cls-2" points="53.36 29.84 44.71 31.31 32.59 24.24 53.36 29.84"/><polygon class="cls-2" points="38.57 32.35 29.93 33.82 17.8 26.75 38.57 32.35"/><polygon class="cls-2" points="174.01 61.09 165.05 62.61 155.55 73.35 174.01 61.09"/><polygon class="cls-2" points="159.5 63.55 150.85 65.02 141.74 75.69 159.5 63.55"/><polygon class="cls-2" points="144.71 66.06 136.07 67.53 126.95 78.2 144.71 66.06"/><polygon class="cls-2" points="128.94 68.74 120.29 70.21 111.18 80.88 128.94 68.74"/><polygon class="cls-2" points="114.15 71.25 105.5 72.72 96.39 83.39 114.15 71.25"/><polygon class="cls-2" points="99.36 73.76 90.72 75.23 81.61 85.91 99.36 73.76"/><polygon class="cls-2" points="84.58 76.27 75.93 77.74 66.82 88.42 84.58 76.27"/><polygon class="cls-2" points="69.79 78.78 61.14 80.25 52.03 90.93 69.79 78.78"/><polygon class="cls-2" points="55 81.29 46.35 82.76 37.24 93.44 55 81.29"/></svg>